<svg width="9" height="11" viewBox="0 0 9 11" fill="none" xmlns="http://www.w3.org/2000/svg">
<path d="M8.2556 4.35784C8.2556 7.17432 4.5003 9.9908 4.5003 9.9908C4.5003 9.9908 0.744995 7.17432 0.744995 4.35784C0.744995 3.36187 1.14064 2.4067 1.8449 1.70244C2.54915 0.998186 3.50433 0.602539 4.5003 0.602539C5.49627 0.602539 6.45144 0.998186 7.1557 1.70244C7.85995 2.4067 8.2556 3.36187 8.2556 4.35784V4.35784Z" stroke="#E8E8E8" stroke-width="0.715296" stroke-linecap="round" stroke-linejoin="round"/>
<path d="M4.5004 5.76606C5.27815 5.76606 5.90864 5.13557 5.90864 4.35782C5.90864 3.58007 5.27815 2.94958 4.5004 2.94958C3.72265 2.94958 3.09216 3.58007 3.09216 4.35782C3.09216 5.13557 3.72265 5.76606 4.5004 5.76606Z" stroke="#E8E8E8" stroke-width="0.357648" stroke-linecap="round" stroke-linejoin="round"/>
</svg>
