<svg width="18" height="18" viewBox="0 0 18 18" fill="none" xmlns="http://www.w3.org/2000/svg">
<path d="M0.355347 1.02032C0.355347 0.827089 0.432106 0.641774 0.56874 0.505141C0.705373 0.368508 0.890687 0.291748 1.08392 0.291748H1.62597C2.54883 0.291748 3.10254 0.912489 3.41825 1.48952C3.62905 1.8742 3.78156 2.32008 3.90105 2.7242C3.93337 2.72165 3.96577 2.72035 3.99819 2.72031H16.1391C16.9454 2.72031 17.5282 3.49162 17.3067 4.26779L15.531 10.4937C15.3717 11.0521 15.0349 11.5434 14.5715 11.8933C14.108 12.2432 13.5432 12.4325 12.9625 12.4326H7.18447C6.59918 12.4326 6.03008 12.2405 5.56464 11.8856C5.0992 11.5307 4.76319 11.0328 4.60825 10.4684L3.86996 7.77561L2.64597 3.64899L2.645 3.64122C2.49345 3.09042 2.35163 2.5746 2.13986 2.18991C1.93683 1.81591 1.77363 1.74889 1.62694 1.74889H1.08392C0.890687 1.74889 0.705373 1.67213 0.56874 1.53549C0.432106 1.39886 0.355347 1.21355 0.355347 1.02032ZM5.28339 7.42201L6.01293 10.0827C6.15864 10.6093 6.63756 10.9755 7.18447 10.9755H12.9625C13.2264 10.9755 13.4832 10.8895 13.6939 10.7305C13.9046 10.5715 14.0577 10.3482 14.1302 10.0944L15.8175 4.17745H4.32362L5.26979 7.37053L5.28339 7.42201Z" fill="#252525"/>
<path d="M8.61165 15.3489C8.61165 15.8641 8.40696 16.3583 8.04261 16.7227C7.67825 17.087 7.18408 17.2917 6.6688 17.2917C6.15353 17.2917 5.65936 17.087 5.295 16.7227C4.93064 16.3583 4.72595 15.8641 4.72595 15.3489C4.72595 14.8336 4.93064 14.3394 5.295 13.9751C5.65936 13.6107 6.15353 13.406 6.6688 13.406C7.18408 13.406 7.67825 13.6107 8.04261 13.9751C8.40696 14.3394 8.61165 14.8336 8.61165 15.3489ZM7.15452 15.3489C7.15452 15.22 7.10334 15.0965 7.01225 15.0054C6.92117 14.9143 6.79762 14.8631 6.6688 14.8631C6.53998 14.8631 6.41644 14.9143 6.32535 15.0054C6.23426 15.0965 6.18309 15.22 6.18309 15.3489C6.18309 15.4777 6.23426 15.6012 6.32535 15.6923C6.41644 15.7834 6.53998 15.8346 6.6688 15.8346C6.79762 15.8346 6.92117 15.7834 7.01225 15.6923C7.10334 15.6012 7.15452 15.4777 7.15452 15.3489Z" fill="#252525"/>
<path d="M15.4128 15.3489C15.4128 15.8641 15.2081 16.3583 14.8438 16.7227C14.4794 17.087 13.9852 17.2917 13.47 17.2917C12.9547 17.2917 12.4605 17.087 12.0961 16.7227C11.7318 16.3583 11.5271 15.8641 11.5271 15.3489C11.5271 14.8336 11.7318 14.3394 12.0961 13.9751C12.4605 13.6107 12.9547 13.406 13.47 13.406C13.9852 13.406 14.4794 13.6107 14.8438 13.9751C15.2081 14.3394 15.4128 14.8336 15.4128 15.3489ZM13.9557 15.3489C13.9557 15.22 13.9045 15.0965 13.8134 15.0054C13.7223 14.9143 13.5988 14.8631 13.47 14.8631C13.3411 14.8631 13.2176 14.9143 13.1265 15.0054C13.0354 15.0965 12.9842 15.22 12.9842 15.3489C12.9842 15.4777 13.0354 15.6012 13.1265 15.6923C13.2176 15.7834 13.3411 15.8346 13.47 15.8346C13.5988 15.8346 13.7223 15.7834 13.8134 15.6923C13.9045 15.6012 13.9557 15.4777 13.9557 15.3489Z" fill="#252525"/>
</svg>
