<svg width="51" height="51" viewBox="0 0 51 51" fill="none" xmlns="http://www.w3.org/2000/svg">
<path d="M48.8258 34.8309L37.3315 45.1535C33.3127 48.7581 28.1285 50.7456 22.7321 50.7456H1.56659C0.992183 50.7456 0.526001 50.2794 0.526001 49.705C0.526001 49.1306 0.992183 48.6644 1.56659 48.6644H22.7321C27.6145 48.6644 32.3054 46.8684 35.9412 43.6051L47.396 33.322C48.5177 32.2003 48.7342 30.4105 47.8601 29.1951C47.3044 28.425 46.4907 27.9589 45.5625 27.8839C44.6551 27.8215 43.7519 28.1399 43.1005 28.7893L34.4033 36.7143C33.4605 37.6675 32.1514 38.2606 30.705 38.2606H20.2992C19.7248 38.2606 19.2586 37.7945 19.2586 37.2201C19.2586 36.6457 19.7248 36.1795 20.2992 36.1795H30.705C31.5375 36.1795 32.295 35.8507 32.8549 35.3179C32.8819 35.2867 32.9111 35.2554 32.9423 35.2263L32.9797 35.193C33.5042 34.6353 33.8268 33.884 33.8268 33.0577C33.8268 31.3366 32.4262 29.936 30.705 29.936H18.4012C13.1212 29.936 8.15556 31.9922 4.41987 35.7258L2.32205 37.936C1.92871 38.3585 1.2669 38.3709 0.852744 37.9755C0.43443 37.5822 0.41778 36.9225 0.813202 36.5062L2.92975 34.2773C7.07752 30.1295 12.5656 27.8569 18.4012 27.8569H30.705C33.4022 27.8569 35.627 29.9193 35.883 32.5499L41.6645 27.2846C42.7092 26.2377 44.1952 25.6841 45.7311 25.8132C47.2545 25.936 48.6447 26.7247 49.55 27.9818C51.0151 30.0151 50.7051 32.962 48.8278 34.835L48.8258 34.8309ZM10.9402 4.18151C10.8757 3.27204 11.2128 2.37714 11.8621 1.72573C12.5114 1.07433 13.3939 0.751746 14.32 0.803775C20.911 1.26788 24.8236 3.75071 26.5406 8.82252C28.2597 3.75071 32.1702 1.26788 38.7633 0.803775C39.6707 0.76007 40.5677 1.07433 41.2191 1.72573C41.8684 2.37506 42.2076 3.27204 42.141 4.18359C41.5084 13.1576 37.1358 17.1659 27.5812 17.4302V20.5666C27.5812 21.141 27.115 21.6071 26.5406 21.6071C25.9662 21.6071 25.5 21.141 25.5 20.5666V17.4302C15.9454 17.1659 11.5728 13.1576 10.9402 4.18151ZM27.5958 15.3491C35.9912 15.1056 39.5146 11.8673 40.064 4.03375C40.0869 3.72574 39.9704 3.4198 39.7477 3.19712C39.5417 2.99108 39.269 2.87662 38.986 2.87662C38.961 2.87662 38.9381 2.87662 38.9132 2.88078C31.0776 3.43229 27.8413 6.95363 27.5958 15.3491ZM13.0172 4.03375C13.5687 11.8693 17.09 15.1056 25.4855 15.3511C25.242 6.95571 22.0037 3.43229 14.1701 2.88286C14.1452 2.88286 14.1202 2.8787 14.0952 2.8787C13.8122 2.8787 13.5375 2.99525 13.3335 3.1992C13.1108 3.42189 12.9943 3.72782 13.0172 4.03375Z" fill="black"/>
</svg>
