<svg width="47" height="52" viewBox="0 0 47 52" fill="none" xmlns="http://www.w3.org/2000/svg">
<path d="M14.4586 17.962C15.2821 18.7854 15.2821 20.1186 14.4586 20.94C13.6351 21.7634 12.302 21.7634 11.4806 20.94C10.6572 20.1165 10.6572 18.7833 11.4806 17.962C12.3041 17.1385 13.6372 17.1385 14.4586 17.962ZM45.2241 28.9093L44.3248 29.8381C44.8219 31.5546 44.3964 33.4816 43.0464 34.8316L28.7968 49.5468C27.828 50.5155 26.558 51.0421 25.2059 51.0421C23.8538 51.0421 22.5838 50.5155 21.6277 49.5594L0.396362 28.3281L2.5256 9.06802L21.8025 6.43122L43.0464 27.6731C43.1223 27.7489 43.1939 27.8268 43.2634 27.9047L43.7246 27.4288C44.2932 26.8622 44.5986 26.1188 44.5986 25.3269C44.5986 24.535 44.2911 23.7916 43.7372 23.2377L23.2325 2.73506L5.80265 5.11914L5.51833 3.03202L23.9823 0.506836L45.2262 21.7487C47.2017 23.7221 47.2017 26.9338 45.2262 28.9072L45.2241 28.9093ZM41.5575 29.1642L21.0548 8.65944L4.43792 10.9319L2.60142 27.5551L23.1167 48.0704C24.2308 49.1866 26.181 49.1866 27.2951 48.0704L41.5448 33.3553C42.7095 32.1906 42.7095 30.3162 41.5575 29.1642Z" fill="black"/>
</svg>
