<svg width="14" height="13" viewBox="0 0 14 13" fill="none" xmlns="http://www.w3.org/2000/svg">
<path d="M12.8154 9.22258V10.8706C12.8161 11.0236 12.7827 11.175 12.7175 11.3152C12.6522 11.4554 12.5565 11.5812 12.4365 11.6846C12.3165 11.7881 12.1748 11.8668 12.0205 11.9158C11.8662 11.9648 11.7027 11.983 11.5405 11.9693C9.74086 11.7856 8.01219 11.208 6.49338 10.2828C5.08033 9.43938 3.8823 8.31406 2.98439 6.98676C1.99601 5.55364 1.38092 3.92199 1.18895 2.22398C1.17434 2.07207 1.19356 1.91897 1.24539 1.77442C1.29722 1.62986 1.38053 1.49703 1.49 1.38438C1.59948 1.27173 1.73273 1.18172 1.88127 1.1201C2.02981 1.05847 2.19038 1.02656 2.35277 1.02642H4.10727C4.39109 1.0238 4.66624 1.1182 4.88144 1.29204C5.09665 1.46589 5.23721 1.7073 5.27693 1.97129C5.35098 2.49869 5.48832 3.01653 5.68631 3.51493C5.765 3.71155 5.78203 3.92524 5.73539 4.13068C5.68874 4.33611 5.58038 4.52468 5.42314 4.67404L4.6804 5.3717C5.51294 6.747 6.72524 7.88573 8.1894 8.66774L8.93213 7.97008C9.09114 7.82238 9.2919 7.7206 9.5106 7.67678C9.72931 7.63297 9.95681 7.64897 10.1661 7.72288C10.6967 7.90886 11.248 8.03786 11.8095 8.10742C12.0936 8.14506 12.3531 8.27947 12.5385 8.48508C12.724 8.6907 12.8225 8.95317 12.8154 9.22258Z" stroke="white" stroke-linecap="round" stroke-linejoin="round"/>
</svg>
