<svg width="51" height="52" viewBox="0 0 51 52" fill="none" xmlns="http://www.w3.org/2000/svg">
<path d="M19.1818 25.7692C26.1508 25.7692 31.8183 20.1018 31.8183 13.1328C31.8183 6.16378 26.1508 0.496338 19.1818 0.496338C12.2128 0.496338 6.54539 6.16378 6.54539 13.1328C6.54539 20.1018 12.2128 25.7692 19.1818 25.7692ZM19.1818 2.60241C24.9883 2.60241 29.7122 7.32633 29.7122 13.1328C29.7122 18.9392 24.9883 23.6631 19.1818 23.6631C13.3754 23.6631 8.65147 18.9392 8.65147 13.1328C8.65147 7.32633 13.3754 2.60241 19.1818 2.60241ZM22.3409 31.0344C22.3409 31.6157 21.8692 32.0874 21.2879 32.0874H20.2349C10.3637 32.0874 2.33325 40.1179 2.33325 49.9891C2.33325 50.5703 1.86149 51.0421 1.28021 51.0421C0.698933 51.0421 0.227173 50.5703 0.227173 49.9891C0.227173 38.9574 9.20326 29.9814 20.2349 29.9814H21.2879C21.8692 29.9814 22.3409 30.4531 22.3409 31.0344ZM50.5918 35.792C50.1643 34.6189 49.0375 33.8313 47.7886 33.8313H42.7383L40.9355 28.7641C40.5016 27.6036 39.3791 26.8223 38.1386 26.8223C36.8981 26.8223 35.7756 27.6036 35.3375 28.7788L33.5389 33.8313H28.4886C27.2418 33.8313 26.1171 34.6168 25.6875 35.7836C25.2557 36.9546 25.6054 38.2835 26.5741 39.1028L30.601 42.3798L29.0067 47.1648C28.6297 48.3716 29.0551 49.6921 30.066 50.4461C30.5778 50.8315 31.2138 51.0421 31.8541 51.0421C32.448 51.0421 33.0229 50.8673 33.5137 50.5387L38.1639 47.426L42.8983 50.5093C43.9598 51.1958 45.3414 51.1432 46.3502 50.3724C47.3527 49.5994 47.757 48.2747 47.3548 47.0532L45.7099 42.363L49.7178 39.0986C50.6718 38.294 51.0257 36.9651 50.5981 35.7941L50.5918 35.792ZM48.3678 37.4748L43.7997 41.1962C43.4543 41.4763 43.3216 41.9418 43.4712 42.3609L45.3561 47.7313C45.474 48.0852 45.3561 48.4769 45.0613 48.7001C44.7601 48.9276 44.3536 48.9444 44.0419 48.7423L38.7262 45.2799C38.3745 45.0503 37.9175 45.0545 37.5657 45.2862L32.3385 48.7865C32.0373 48.9866 31.6182 48.9802 31.3276 48.757C31.0285 48.5359 30.9042 48.1462 31.0116 47.8072L32.8271 42.3503C32.964 41.9354 32.8313 41.4763 32.4922 41.2025L27.9178 37.4811C27.6398 37.2452 27.5366 36.8556 27.6651 36.5102C27.7915 36.1648 28.1221 35.9352 28.4886 35.9352H34.2824C34.7289 35.9352 35.1248 35.6551 35.2743 35.236L37.3193 29.497C37.5742 28.8125 38.7136 28.8272 38.96 29.4822L41.0092 35.2339C41.1566 35.653 41.5546 35.9331 42.0011 35.9331H47.7949C48.1635 35.9331 48.4942 36.1648 48.6205 36.5102C48.7469 36.8556 48.6416 37.2473 48.3762 37.4727L48.3678 37.4748Z" fill="black"/>
</svg>
