<svg width="51" height="47" viewBox="0 0 51 47" fill="none" xmlns="http://www.w3.org/2000/svg">
<path d="M0.526001 18.5662C0.526001 17.9918 0.992183 17.5256 1.56659 17.5256H11.9724C12.5468 17.5256 13.013 17.9918 13.013 18.5662C13.013 19.1406 12.5468 19.6067 11.9724 19.6067H1.56659C0.992183 19.6067 0.526001 19.1406 0.526001 18.5662ZM50.474 20.6473V31.0532C50.474 34.1666 48.5094 36.8305 45.754 37.8711C46.1202 38.6702 46.3117 39.5318 46.3117 40.4184C46.3117 43.8607 43.5105 46.6619 40.0682 46.6619C36.626 46.6619 33.8247 43.8607 33.8247 40.4184C33.8247 39.7025 33.9496 39.0011 34.191 38.3373H16.8091C17.0505 39.0011 17.1753 39.7025 17.1753 40.4184C17.1753 43.8607 14.3741 46.6619 10.9318 46.6619C7.48959 46.6619 4.68834 43.8607 4.68834 40.4184C4.68834 39.5318 4.87981 38.6702 5.24609 37.8711C2.49062 36.8305 0.526001 34.1666 0.526001 31.0532V24.8097C0.526001 24.2353 0.992183 23.7691 1.56659 23.7691C2.14099 23.7691 2.60717 24.2353 2.60717 24.8097V31.0532C2.60717 33.921 4.94016 36.2561 7.81009 36.2561H33.8247V10.2415C33.8247 6.22482 30.5573 2.95739 26.5406 2.95739C25.9662 2.95739 25.5 2.49121 25.5 1.9168C25.5 1.3424 25.9662 0.876221 26.5406 0.876221C31.704 0.876221 35.9059 5.0781 35.9059 10.2415V11.2821H41.1088C46.2722 11.2821 50.474 15.4839 50.474 20.6473ZM35.9059 13.3632V23.7691H48.3929V20.6473C48.3929 16.6307 45.1254 13.3632 41.1088 13.3632H35.9059ZM14.5177 38.3373H7.81009C7.65817 38.3373 7.50624 38.331 7.35431 38.3227C6.9693 38.9658 6.76951 39.6796 6.76951 40.4184C6.76951 42.714 8.63631 44.5808 10.9318 44.5808C13.2274 44.5808 15.0942 42.714 15.0942 40.4184C15.0942 39.6859 14.8965 38.9762 14.5177 38.3373ZM43.6457 38.3227C43.4959 38.3331 43.344 38.3373 43.19 38.3373H36.4824C36.1036 38.9762 35.9059 39.6859 35.9059 40.4184C35.9059 42.714 37.7727 44.5808 40.0682 44.5808C42.3637 44.5808 44.2305 42.714 44.2305 40.4184C44.2305 39.6796 44.0287 38.9658 43.6457 38.3227ZM48.3929 31.0532V25.8502H35.9059V36.2561H43.19C46.0599 36.2561 48.3929 33.921 48.3929 31.0532ZM1.56659 2.95739H20.2971C20.8715 2.95739 21.3377 2.49121 21.3377 1.9168C21.3377 1.3424 20.8715 0.876221 20.2971 0.876221H1.56659C0.992183 0.876221 0.526001 1.3424 0.526001 1.9168C0.526001 2.49121 0.992183 2.95739 1.56659 2.95739ZM1.56659 11.2821H16.1348C16.7092 11.2821 17.1753 10.8159 17.1753 10.2415C17.1753 9.66708 16.7092 9.20089 16.1348 9.20089H1.56659C0.992183 9.20089 0.526001 9.66708 0.526001 10.2415C0.526001 10.8159 0.992183 11.2821 1.56659 11.2821Z" fill="black"/>
</svg>
